# xmcd CD database file
#
# Track frame offsets:
#	150
#	18035
#	27362
#	38417
#	49027
#	60152
#	72160
#	84504
#	96920
#	105497
#	115985
#	128310
#	139715
#	149770
#	160707
#	172212
#
# Disc length: 2456 seconds
#
# Revision: 0
# Processed by: cddbd v1.5.1PL0 Copyright (c) Steve Scherf et al.
# Submitted via: CDex 1.51
#
DISCID=c8099610
DTITLE=Louis Prima - Prima Di Tutto! CD1
DYEAR=2004
DGENRE=Jazz
TTITLE0=Just A Gigolo
TTITLE1=Eleanor
TTITLE2=Shake Hands With Santa Claus
TTITLE3=Oooh-Dahdily-Dah
TTITLE4=Basta
TTITLE5=The Bigger The Figure
TTITLE6=Boney Blues
TTITLE7=One Mint Julep
TTITLE8=Chili Sauce
TTITLE9=Oh, Marie
TTITLE10=Luigi
TTITLE11=Paul Revere
TTITLE12=It's Good As New (I Painted It Blue)
TTITLE13=Barnacle Bill The Sailor
TTITLE14=Shepherd Boy
TTITLE15=Chop Suey, Chow Mein
EXTD=YEAR: 2004
EXTT0=
EXTT1=
EXTT2=
EXTT3=
EXTT4=
EXTT5=
EXTT6=
EXTT7=
EXTT8=
EXTT9=
EXTT10=
EXTT11=
EXTT12=
EXTT13=
EXTT14=
EXTT15=
PLAYORDER=
